<svg width="39" height="39" viewBox="0 0 39 39" xmlns="http://www.w3.org/2000/svg"><title>Instagram logo</title><desc>Created with Sketch.</desc><g fill="none"><path d="M38.5 19.5c0-10.492-8.508-19-19-19-10.491 0-19 8.509-19 19 0 10.49 8.51 19 19 19 10.491 0 19-8.509 19-19z" stroke="#FEFEFE"/><path d="M27.225 24.204c0 2.17-1.68 3.932-3.744 3.932h-8.961c-2.064 0-3.744-1.762-3.744-3.932v-9.41c0-2.168 1.68-3.93 3.744-3.93h8.961c2.064 0 3.744 1.762 3.744 3.93v9.41zm-3.744-15.204h-8.961c-3.044 0-5.519 2.599-5.519 5.794v9.41c0 3.197 2.475 5.796 5.519 5.796h8.961c3.044 0 5.519-2.599 5.519-5.796v-9.41c0-3.195-2.475-5.794-5.519-5.794z" fill="#FEFEFE"/><path d="M19.5 23.103c-1.989 0-3.605-1.616-3.605-3.605 0-1.988 1.617-3.607 3.605-3.607 1.991 0 3.605 1.619 3.605 3.607 0 1.988-1.617 3.605-3.605 3.605m0-9.103c-3.033 0-5.5 2.467-5.5 5.499 0 3.032 2.467 5.501 5.5 5.501s5.5-2.469 5.5-5.501c0-3.032-2.467-5.499-5.5-5.499" fill="#FEFEFE"/><path d="M24.501 12c-.394 0-.784.158-1.061.438-.277.28-.44.667-.44 1.061 0 .394.163.781.44 1.061.277.277.667.44 1.061.44.394 0 .781-.163 1.059-.44.28-.28.44-.667.44-1.061 0-.394-.16-.781-.44-1.061-.277-.28-.664-.438-1.059-.438" fill="#FEFEFE"/></g></svg>
