<svg width="39" height="39" viewBox="0 0 39 39" xmlns="http://www.w3.org/2000/svg"><title>Twitter logo</title><desc>Created with Sketch.</desc><g fill="none"><path d="M27.862 16.839l-.018-.556c.849-.588 1.575-1.333 2.156-2.182-.771.326-1.602.548-2.475.638.891-.515 1.575-1.341 1.895-2.328-.831.473-1.757.816-2.734.987-.789-.841-1.906-1.381-3.142-1.397-2.38-.031-4.312 1.864-4.312 4.243 0 .335.035.661.113.979-3.583-.22-6.761-1.977-8.881-4.632-.372.636-.587 1.381-.587 2.174 0 1.51.762 2.851 1.921 3.636-.709-.033-1.376-.23-1.957-.565v.059c0 2.107 1.489 3.866 3.463 4.282-.363.098-.745.146-1.135.146-.286-.008-.554-.033-.813-.09.545 1.732 2.138 2.992 4.024 3.031-1.48 1.153-3.333 1.847-5.349 1.839-.346 0-.691-.023-1.03-.065 1.906 1.243 4.173 1.962 6.606 1.962 7.92 0 12.256-6.514 12.256-12.161" fill="#FEFEFE"/><path d="M38.5 19.5c0-10.492-8.508-19-19-19-10.491 0-19 8.509-19 19 0 10.49 8.51 19 19 19 10.491 0 19-8.509 19-19z" stroke="#FEFEFE"/></g></svg>
