<svg width="39" height="39" viewBox="0 0 39 39" xmlns="http://www.w3.org/2000/svg"><title>LinkedIn logo</title><desc>Created with Sketch.</desc><g fill="none"><path d="M38.5 19.5c0-10.492-8.508-19-19-19-10.491 0-19 8.509-19 19 0 10.49 8.51 19 19 19 10.491 0 19-8.509 19-19z" stroke="#FEFEFE"/><path d="M11.215 27h3.643v-10.796h-3.643v10.796zm1.845-16c-1.246 0-2.06.806-2.06 1.865 0 1.037.792 1.865 2.013 1.865h.024c1.271 0 2.06-.828 2.06-1.865-.022-1.059-.789-1.865-2.038-1.865zm14.94 9.808v6.192h-3.645v-5.777c0-1.45-.525-2.44-1.847-2.44-1.007 0-1.603.666-1.869 1.313-.095.229-.12.553-.12.874v6.03h-3.645s.051-9.782 0-10.796h3.645v1.529l-.024.037h.024v-.037c.486-.734 1.348-1.782 3.284-1.782 2.397 0 4.197 1.542 4.197 4.857z" fill="#FEFEFE"/></g></svg>
